HIERARCHY
ROOT Hips
{
  OFFSET 5.84602e-005 68.8428 3.50346
  CHANNELS 6 Xposition Yposition Zposition Zrotation Xrotation Yrotation
  JOINT Spine
  {
    OFFSET 0 8.597 -4.6522
    CHANNELS 3 Zrotation Xrotation Yrotation
    JOINT Spine1
    {
      OFFSET 0 7.8454 0.4098
      CHANNELS 3 Zrotation Xrotation Yrotation
      JOINT Spine2
      {
        OFFSET 0 9.7078 -2.1609
        CHANNELS 3 Zrotation Xrotation Yrotation
        JOINT Neck
        {
          OFFSET 0 21.8761 -0.4549
          CHANNELS 3 Zrotation Xrotation Yrotation
          JOINT Head
          {
            OFFSET 0 12.3537 3.3602
            CHANNELS 3 Zrotation Xrotation Yrotation
            End Site
            {
              OFFSET 0.0001 18.9506 0.5657
            }
          }
        }
        JOINT LeftShoulder
        {
          OFFSET 2.2086 21.1115 7.2329
          CHANNELS 3 Zrotation Xrotation Yrotation
          JOINT LeftArm
          {
            OFFSET 13.1193 3.0282 -4.8998
            CHANNELS 3 Zrotation Xrotation Yrotation
            JOINT LeftForeArm
            {
              OFFSET 27.4081 -0.0973053 -0.2375
              CHANNELS 3 Zrotation Xrotation Yrotation
              JOINT LeftHand
              {
                OFFSET 22.8641 0.0662994 -0.1369
                CHANNELS 3 Zrotation Xrotation Yrotation
                JOINT LeftHandIndex1
                {
                  OFFSET 8.8614 0.775009 2.4612
                  CHANNELS 3 Zrotation Xrotation Yrotation
                  JOINT LeftHandIndex2
                  {
                    OFFSET 3.3146 -0.808304 0.5841
                    CHANNELS 3 Zrotation Xrotation Yrotation
                    JOINT LeftHandIndex3
                    {
                      OFFSET 2.2628 -0.552002 0.3989
                      CHANNELS 3 Zrotation Xrotation Yrotation
                      End Site
                      {
                        OFFSET 1.6102 -0.4807 0.2612
                      }
                    }
                  }
                }
                JOINT LeftHandMiddle1
                {
                  OFFSET 8.9937 0.895004 0.2143
                  CHANNELS 3 Zrotation Xrotation Yrotation
                  JOINT LeftHandMiddle2
                  {
                    OFFSET 4.0984 0.0113983 -0.0242
                    CHANNELS 3 Zrotation Xrotation Yrotation
                    JOINT LeftHandMiddle3
                    {
                      OFFSET 2.2716 0.00689697 -0.0138001
                      CHANNELS 3 Zrotation Xrotation Yrotation
                      End Site
                      {
                        OFFSET 2.0404 -0.1441 0.0027
                      }
                    }
                  }
                }
                JOINT LeftHandRing1
                {
                  OFFSET 8.5234 0.597198 -2.0164
                  CHANNELS 3 Zrotation Xrotation Yrotation
                  JOINT LeftHandRing2
                  {
                    OFFSET 3.7188 -0.188293 -0.2328
                    CHANNELS 3 Zrotation Xrotation Yrotation
                    JOINT LeftHandRing3
                    {
                      OFFSET 2.1191 -0.106598 -0.1332
                      CHANNELS 3 Zrotation Xrotation Yrotation
                      End Site
                      {
                        OFFSET 1.8737 -0.2304 -0.0886
                      }
                    }
                  }
                }
                JOINT LeftHandPinky1
                {
                  OFFSET 7.9094 -0.601089 -3.4825
                  CHANNELS 3 Zrotation Xrotation Yrotation
                  JOINT LeftHandPinky2
                  {
                    OFFSET 2.2874 -0.477005 -0.6314
                    CHANNELS 3 Zrotation Xrotation Yrotation
                    JOINT LeftHandPinky3
                    {
                      OFFSET 1.6774 -0.349396 -0.4633
                      CHANNELS 3 Zrotation Xrotation Yrotation
                      End Site
                      {
                        OFFSET 1.4888 -0.4091 -0.3416
                      }
                    }
                  }
                }
                JOINT LeftHandThumb1
                {
                  OFFSET 1.833 -1.3875 1.3896
                  CHANNELS 3 Zrotation Xrotation Yrotation
                  JOINT LeftHandThumb2
                  {
                    OFFSET 3.4129 -1.121 2.5732
                    CHANNELS 3 Zrotation Xrotation Yrotation
                    JOINT LeftHandThumb3
                    {
                      OFFSET 2.2474 -0.804199 1.6192
                      CHANNELS 3 Zrotation Xrotation Yrotation
                      End Site
                      {
                        OFFSET 1.6527 -0.5689 1.1317
                      }
                    }
                  }
                }
              }
            }
          }
        }
        JOINT RightShoulder
        {
          OFFSET -2.2086 21.1115 7.2329
          CHANNELS 3 Zrotation Xrotation Yrotation
          JOINT RightArm
          {
            OFFSET -13.1216 3.0287 -4.9007
            CHANNELS 3 Zrotation Xrotation Yrotation
            JOINT RightForeArm
            {
              OFFSET -27.4081 -0.0973053 -0.2375
              CHANNELS 3 Zrotation Xrotation Yrotation
              JOINT RightHand
              {
                OFFSET -22.8641 0.0664063 -0.1369
                CHANNELS 3 Zrotation Xrotation Yrotation
                JOINT RightHandIndex1
                {
                  OFFSET -8.8614 0.774994 2.4612
                  CHANNELS 3 Zrotation Xrotation Yrotation
                  JOINT RightHandIndex2
                  {
                    OFFSET -3.3146 -0.808304 0.5841
                    CHANNELS 3 Zrotation Xrotation Yrotation
                    JOINT RightHandIndex3
                    {
                      OFFSET -2.2628 -0.552002 0.3989
                      CHANNELS 3 Zrotation Xrotation Yrotation
                      End Site
                      {
                        OFFSET -1.6102 -0.4807 0.2612
                      }
                    }
                  }
                }
                JOINT RightHandMiddle1
                {
                  OFFSET -8.9937 0.894989 0.2143
                  CHANNELS 3 Zrotation Xrotation Yrotation
                  JOINT RightHandMiddle2
                  {
                    OFFSET -4.0984 0.0113983 -0.0242
                    CHANNELS 3 Zrotation Xrotation Yrotation
                    JOINT RightHandMiddle3
                    {
                      OFFSET -2.2716 0.00691223 -0.0138001
                      CHANNELS 3 Zrotation Xrotation Yrotation
                      End Site
                      {
                        OFFSET -2.0404 -0.1441 0.0027
                      }
                    }
                  }
                }
                JOINT RightHandRing1
                {
                  OFFSET -8.5234 0.597198 -2.0164
                  CHANNELS 3 Zrotation Xrotation Yrotation
                  JOINT RightHandRing2
                  {
                    OFFSET -3.7188 -0.188309 -0.2328
                    CHANNELS 3 Zrotation Xrotation Yrotation
                    JOINT RightHandRing3
                    {
                      OFFSET -2.1191 -0.106598 -0.1332
                      CHANNELS 3 Zrotation Xrotation Yrotation
                      End Site
                      {
                        OFFSET -1.8737 -0.2304 -0.0886
                      }
                    }
                  }
                }
                JOINT RightHandPinky1
                {
                  OFFSET -7.9094 -0.601105 -3.4825
                  CHANNELS 3 Zrotation Xrotation Yrotation
                  JOINT RightHandPinky2
                  {
                    OFFSET -2.2874 -0.477005 -0.6314
                    CHANNELS 3 Zrotation Xrotation Yrotation
                    JOINT RightHandPinky3
                    {
                      OFFSET -1.6774 -0.349396 -0.4633
                      CHANNELS 3 Zrotation Xrotation Yrotation
                      End Site
                      {
                        OFFSET -1.4888 -0.4091 -0.3416
                      }
                    }
                  }
                }
                JOINT RightHandThumb1
                {
                  OFFSET -1.833 -1.38751 1.3896
                  CHANNELS 3 Zrotation Xrotation Yrotation
                  JOINT RightHandThumb2
                  {
                    OFFSET -3.41299 -1.12099 2.5732
                    CHANNELS 3 Zrotation Xrotation Yrotation
                    JOINT RightHandThumb3
                    {
                      OFFSET -2.24741 -0.804108 1.6192
                      CHANNELS 3 Zrotation Xrotation Yrotation
                      End Site
                      {
                        OFFSET -1.6527 -0.5689 1.1317
                      }
                    }
                  }
                }
              }
            }
          }
        }
      }
    }
  }
  JOINT RightUpLeg
  {
    OFFSET -9.1966 3.8861 -0.7581
    CHANNELS 3 Zrotation Xrotation Yrotation
    JOINT RightLeg
    {
      OFFSET -0.7359 -41.0265 0
      CHANNELS 3 Zrotation Xrotation Yrotation
      JOINT RightFoot
      {
        OFFSET 0 -40.2855 0
        CHANNELS 3 Zrotation Xrotation Yrotation
        JOINT RightToeBase
        {
          OFFSET 0 -5.6122 11.7359
          CHANNELS 3 Zrotation Xrotation Yrotation
          End Site
          {
            OFFSET 0 0 7.8731
          }
        }
      }
    }
  }
  JOINT LeftUpLeg
  {
    OFFSET 9.1965 3.8864 -0.7581
    CHANNELS 3 Zrotation Xrotation Yrotation
    JOINT LeftLeg
    {
      OFFSET 0.7359 -41.0268 0
      CHANNELS 3 Zrotation Xrotation Yrotation
      JOINT LeftFoot
      {
        OFFSET 0 -40.2855 0
        CHANNELS 3 Zrotation Xrotation Yrotation
        JOINT LeftToeBase
        {
          OFFSET 0 -5.6122 11.7359
          CHANNELS 3 Zrotation Xrotation Yrotation
          End Site
          {
            OFFSET 0 0 7.8731
          }
        }
      }
    }
  }
}
MOTION
Frames:	4
Frame Time:	0.0333333
-0.000617527 0.248388 -65.2567 -180 -89.9981 -180 -0.0627306 8.59698 -0.10809 -0.110745 17.1941 -0.210149 -0.110745 17.1941 -0.210149 3.2712e-006 -11.0597 -9.13022e-007 -3.93962e-008 -26.9219 -9.63332e-009 -2.80083 2.04385 9.81687 -73.8569 2.00669 29.6533 33.0836 8.32221 -77.4778 -4.10409 23.8854 -3.18836 1.59028e-015 -8.05078e-015 1.59028e-015 7.95139e-016 -8.19987e-015 1.59028e-015 2.38542e-015 -8.34896e-015 1.59028e-015 1.59028e-015 -8.05078e-015 1.59028e-015 -0.0146262 -8.80994e-005 -5.42536e-006 3.97569e-016 6.55989e-015 -0 1.59028e-015 -8.05078e-015 1.59028e-015 -0.0187613 -0.00117674 5.52494e-005 3.97569e-016 8.64713e-015 -0 1.59028e-015 -8.05078e-015 1.59028e-015 -0.0122499 -0.00323866 0.000667916 -3.97569e-016 8.39865e-015 3.18055e-015 1.59028e-015 -8.05078e-015 1.59028e-015 7.95139e-016 -8.19987e-015 1.59028e-015 2.38542e-015 -8.34896e-015 1.59028e-015 2.69992 2.27242 -10.4051 74.4919 1.75037 -29.69 -33.2463 7.58912 76.1678 4.15475 24.2799 3.6877 -1.19271e-015 -1.88845e-015 -0 -2.32556e-006 -2.25681e-007 6.10126e-007 -3.97569e-016 -4.37326e-015 -0 -1.19271e-015 -1.88845e-015 -0 0.0149876 -9.08804e-005 6.0499e-009 7.95139e-016 -1.0635e-014 -4.77083e-015 -1.19271e-015 -1.88845e-015 -0 0.0189993 -0.00119113 -5.46198e-005 2.18827e-007 1.15192e-007 9.04012e-007 -1.19271e-015 -1.88845e-015 -0 0.0122733 -0.00324972 -0.000675425 -3.97569e-016 -8.84592e-015 -6.36111e-015 -1.19271e-015 -1.88845e-015 -0 -2.32556e-006 -2.25681e-007 6.10126e-007 -3.97569e-016 -4.37326e-015 -0 -32.5374 -40.6954 1.81044 169.335 77.599 -172.777 -0.282957 15.5588 -7.67577 7.7841e-007 -3.48402e-008 5.00709e-006 33.5528 -40.6726 -0.629178 -169.337 77.5997 172.775 1.21008 15.5053 6.99068 -1.87037e-008 -9.05776e-007 -2.61132e-008 
-0.000675603 0.248682 -65.2567 -180 -89.9981 -180 -0.0654418 9.1723 -0.106111 -0.115686 18.3447 -0.205484 -0.115686 18.3447 -0.205484 -2.56232e-006 -11.5846 6.48533e-007 -1.24523e-007 -27.5628 9.57758e-011 -3.45517 0.615339 9.01405 -73.5775 2.12199 29.5953 33.0836 8.3222 -77.4778 -2.37178 22.9447 -4.18386 -2.33624e-006 1.69387e-007 5.87119e-007 -6.34499e-032 -1.14301e-015 -3.18055e-015 -3.97569e-016 -1.04362e-015 -1.59028e-015 -2.33624e-006 1.69387e-007 5.87119e-007 -0.0145914 -8.63922e-005 2.85039e-006 1.19271e-015 -4.96962e-015 -0 -2.33624e-006 1.69387e-007 5.87119e-007 -0.0187515 -0.00117512 6.20776e-005 -7.95139e-016 8.00108e-015 -1.59028e-015 -2.33624e-006 1.69387e-007 5.87119e-007 -0.012279 -0.00325156 0.000676213 7.95139e-016 -4.96962e-015 1.59028e-015 -2.33624e-006 1.69387e-007 5.87119e-007 -6.34499e-032 -1.14301e-015 -3.18055e-015 -3.97569e-016 -1.04362e-015 -1.59028e-015 3.55011 0.813708 -9.37807 73.9388 1.98466 -29.577 -33.2433 7.60223 76.1912 2.34631 23.1464 4.58242 -7.95139e-016 -2.68359e-015 -1.59028e-015 -3.97569e-016 3.37934e-015 -0 7.95139e-016 3.27995e-015 1.59028e-015 -7.95139e-016 -2.68359e-015 -1.59028e-015 0.0149949 -8.95994e-005 4.68351e-006 -2.15178e-031 3.8763e-015 3.18055e-015 -7.95139e-016 -2.68359e-015 -1.59028e-015 0.0190005 -0.00119032 -5.73367e-005 -1.19271e-015 -3.97569e-016 -0 -7.95139e-016 -2.68359e-015 -1.59028e-015 0.0122439 -0.00324276 -0.000670693 -7.95139e-016 -1.28216e-014 -6.36111e-015 -7.95139e-016 -2.68359e-015 -1.59028e-015 -3.97569e-016 3.37934e-015 -0 7.95139e-016 3.27995e-015 1.59028e-015 -31.7912 -40.6682 2.73151 169.336 77.5985 -172.776 0.418554 15.597 -8.16268 -1.35629e-006 -1.29712e-006 -1.70815e-006 32.8931 -40.6558 -1.44965 -169.337 77.5991 172.775 0.588357 15.547 7.41863 -1.07962e-006 7.68888e-008 -4.97138e-006 
-0.000732879 0.248982 -65.2566 -180 -89.9981 -180 -0.0681645 9.7459 -0.104053 -0.120744 19.4919 -0.200599 -0.120745 19.4919 -0.200599 1.84435e-006 -12.1089 8.17372e-007 -1.82178e-007 -28.2026 -2.25919e-007 -4.12899 -0.802787 8.19553 -73.2981 2.23698 29.5367 33.0836 8.3222 -77.4778 -0.670577 21.978 -5.14072 2.33506e-006 -1.60454e-007 -5.94232e-007 2.49552e-006 2.17461e-006 -6.02563e-007 2.33506e-006 -1.60454e-007 -5.94232e-007 2.33506e-006 -1.60454e-007 -5.94232e-007 -0.0145852 -8.7793e-005 1.24015e-006 2.33506e-006 -1.60379e-007 -5.94254e-007 2.33506e-006 -1.60454e-007 -5.94232e-007 -0.0187679 -0.00117449 6.99828e-005 2.33506e-006 -1.60358e-007 -5.94282e-007 2.33506e-006 -1.60454e-007 -5.94232e-007 -0.0122619 -0.00324242 0.000669069 2.33504e-006 -1.60404e-007 -5.94315e-007 2.33506e-006 -1.60454e-007 -5.94232e-007 2.49552e-006 2.17461e-006 -6.02563e-007 2.33506e-006 -1.60454e-007 -5.94232e-007 4.42547 -0.628088 -8.33055 73.3852 2.21785 -29.4616 -33.2403 7.61533 76.2146 0.573763 21.9889 5.42999 2.53292e-006 -2.11954e-006 -6.2338e-007 -2.06689e-007 2.32623e-006 9.13479e-009 2.32623e-006 2.06689e-007 -6.14245e-007 2.53292e-006 -2.11954e-006 -6.2338e-007 0.0149953 -9.13224e-005 -4.06674e-006 2.32623e-006 2.06608e-007 -6.14274e-007 2.53292e-006 -2.11954e-006 -6.2338e-007 0.018989 -0.00119061 -5.46915e-005 2.32622e-006 2.06588e-007 -6.14303e-007 2.53292e-006 -2.11954e-006 -6.2338e-007 0.0122612 -0.00324583 -0.000667899 2.32621e-006 2.06636e-007 -6.14333e-007 2.53292e-006 -2.11954e-006 -6.2338e-007 -2.06689e-007 2.32623e-006 9.13479e-009 2.32623e-006 2.06689e-007 -6.14245e-007 -31.046 -40.6322 3.65147 169.336 77.5976 -172.775 1.12025 15.6294 -8.64998 -4.99886e-007 -3.5863e-007 1.96323e-006 32.2344 -40.6317 -2.26915 -169.338 77.5987 172.774 -0.033638 15.5842 7.84701 -1.26235e-006 -4.30102e-008 -8.14774e-006 
-0.000799684 0.249336 -65.2566 -180 -89.9981 -180 -0.0711035 10.3622 -0.101733 -0.126321 20.7245 -0.195056 -0.126322 20.7245 -0.195056 1.83694e-006 -12.6324 -3.41254e-007 1.35081e-007 -28.9161 1.21631e-007 -4.90276 -2.3082 7.30158 -72.9719 2.3708 29.4677 33.0835 8.3222 -77.4778 1.15252 20.9064 -6.15376 -2.48406e-006 -2.18276e-006 6.15331e-007 -2.18276e-006 2.48406e-006 5.90974e-007 3.97569e-016 1.54058e-015 -1.59028e-015 -2.48406e-006 -2.18276e-006 6.15331e-007 -0.0146035 -8.75341e-005 1.20916e-005 -3.97569e-016 2.98177e-015 7.95139e-016 -2.48406e-006 -2.18276e-006 6.15331e-007 -0.018757 -0.00117315 5.61171e-005 -3.97569e-016 -4.57205e-015 -7.95139e-016 -2.48406e-006 -2.18276e-006 6.15331e-007 -0.0122408 -0.00323811 0.000677026 1.19271e-015 -1.23743e-014 1.59028e-015 -2.48406e-006 -2.18276e-006 6.15331e-007 -2.18276e-006 2.48406e-006 5.90974e-007 3.97569e-016 1.54058e-015 -1.59028e-015 5.42193 -2.14935 -7.18835 72.7675 2.47629 -29.3296 -33.2373 7.62842 76.238 -1.32121 20.7172 6.31972 -1.19271e-015 8.84592e-015 1.59028e-015 8.01941e-007 -1.16219e-006 -6.4297e-006 2.55888e-007 1.50013e-007 7.676e-007 -1.19271e-015 8.84592e-015 1.59028e-015 0.0149999 -8.81019e-005 3.30954e-006 3.86217e-032 1.39149e-015 -1.59028e-015 -1.19271e-015 8.84592e-015 1.59028e-015 0.0189845 -0.00119106 -5.55607e-005 7.95139e-016 -3.37934e-015 1.59028e-015 -1.19271e-015 8.84592e-015 1.59028e-015 0.0122495 -0.00324392 -0.000683192 1.19271e-015 -3.57812e-015 1.59028e-015 -1.19271e-015 8.84592e-015 1.59028e-015 8.01941e-007 -1.16219e-006 -6.4297e-006 2.55888e-007 1.50013e-007 7.676e-007 -30.1793 -40.5783 4.72221 169.337 77.5972 -172.774 1.93897 15.6601 -9.21889 3.94036e-007 1.57029e-007 -4.78661e-008 31.4672 -40.5946 -3.22387 -169.338 77.5982 172.773 -0.75949 15.6221 8.3473 -9.85062e-008 3.92704e-008 1.19389e-008 
